<svg id="Layer_1" data-name="Layer 1" xmlns="http://www.w3.org/2000/svg" viewBox="0 0 42.76 35.97"><defs><style>.cls-1{fill:#fb30fb;}</style></defs><title>pink-pin</title><path class="cls-1" d="M696.54,376.64C693,376.64,693,373,693,373h-3.81l.12-4.69a2.52,2.52,0,0,0-2.39-2.53H680a2.44,2.44,0,0,0-2.39,2.53l.12,4.69h-3.81s0,3.61-3.57,3.61H662c0,3.25,1.91,9.38,16.2,10.59l.36,12.27a2.3,2.3,0,0,0,2.38,2.28h4.88a2.37,2.37,0,0,0,2.38-2.28l.36-12.27c14.3-1.21,16.2-7.34,16.2-10.59Zm-31.68,2.41h5.48a5.54,5.54,0,0,0,5.48-3.61h2l.36,9.38C671.05,384.22,666.41,382.17,664.86,379.05Zm21.08,20.45h-4.88L680,368.22h6.9Zm2.86-14.68.36-9.38h2a5.54,5.54,0,0,0,5.48,3.61h5.48C700.47,382.17,695.83,384.22,688.8,384.82Z" transform="translate(-662 -365.81)"/></svg>